<svg width="32" height="32" fill="none" xmlns="http://www.w3.org/2000/svg"><rect width="32" height="32" rx="16" fill="#fff"/><path d="M23.512 16.501a.492.492 0 0 1-.2-.042l-4.188-1.876a.489.489 0 0 1 0-.892l4.188-1.87a.489.489 0 0 1 .398.892l-3.191 1.425 3.192 1.43a.488.488 0 0 1-.199.933Z" fill="#67BECE"/><path d="M17.804 23.308c-4.605 0-8.63-3.11-9.788-7.562a.488.488 0 0 1 .944-.246 9.14 9.14 0 0 0 8.844 6.832.488.488 0 0 1 0 .976Z" fill="#3F54A3"/><path d="M16.123 19.255a.488.488 0 0 1-.488-.488V9.488a.488.488 0 1 1 .976 0v9.279a.488.488 0 0 1-.488.488Z" fill="#67BECE"/></svg>